<svg width="35" height="35" viewBox="0 0 35 35" fill="none" xmlns="http://www.w3.org/2000/svg">
<mask id="path-1-inside-1_21_37" fill="white">
<path d="M32.4366 0.569476L32.8413 10.3806L16.0544 11.0725L34.4295 29.4476L29.5543 34.3228L11.1247 15.8931L10.4279 32.7939L0.61682 32.3893L1.77692 4.2514L4.40716 4.35982L4.29875 1.72957L32.4366 0.569476Z"/>
</mask>
<path d="M32.4366 0.569476L32.8413 10.3806L16.0544 11.0725L34.4295 29.4476L29.5543 34.3228L11.1247 15.8931L10.4279 32.7939L0.61682 32.3893L1.77692 4.2514L4.40716 4.35982L4.29875 1.72957L32.4366 0.569476Z" fill="#1C1C1C"/>
<path d="M32.4366 0.569476L33.4358 0.528267L33.3946 -0.470868L32.3954 -0.429675L32.4366 0.569476ZM32.8413 10.3806L32.8825 11.3797L33.8816 11.3386L33.8404 10.3394L32.8413 10.3806ZM16.0544 11.0725L16.0132 10.0733L13.7349 10.1673L15.3473 11.7796L16.0544 11.0725ZM34.4295 29.4476L35.1366 30.1547L35.8437 29.4476L35.1366 28.7405L34.4295 29.4476ZM29.5543 34.3228L28.8472 35.0299L29.5543 35.737L30.2614 35.0299L29.5543 34.3228ZM11.1247 15.8931L11.8318 15.186L10.2194 13.5737L10.1255 15.8519L11.1247 15.8931ZM10.4279 32.7939L10.3867 33.7931L11.3859 33.8343L11.4271 32.8351L10.4279 32.7939ZM0.61682 32.3893L-0.382331 32.3481L-0.423525 33.3472L0.575611 33.3884L0.61682 32.3893ZM1.77692 4.2514L1.8181 3.25225L0.818959 3.21107L0.777766 4.21021L1.77692 4.2514ZM4.40716 4.35982L4.36598 5.35897L5.45104 5.40369L5.40631 4.31863L4.40716 4.35982ZM4.29875 1.72957L4.25755 0.730422L3.25841 0.771616L3.2996 1.77076L4.29875 1.72957ZM32.4366 0.569476L31.4375 0.610686L31.8421 10.4218L32.8413 10.3806L33.8404 10.3394L33.4358 0.528267L32.4366 0.569476ZM32.8413 10.3806L32.8001 9.38143L16.0132 10.0733L16.0544 11.0725L16.0956 12.0716L32.8825 11.3797L32.8413 10.3806ZM16.0544 11.0725L15.3473 11.7796L33.7224 30.1547L34.4295 29.4476L35.1366 28.7405L16.7615 10.3654L16.0544 11.0725ZM34.4295 29.4476L33.7224 28.7405L28.8472 33.6157L29.5543 34.3228L30.2614 35.0299L35.1366 30.1547L34.4295 29.4476ZM29.5543 34.3228L30.2614 33.6157L11.8318 15.186L11.1247 15.8931L10.4176 16.6002L28.8472 35.0299L29.5543 34.3228ZM11.1247 15.8931L10.1255 15.8519L9.42878 32.7527L10.4279 32.7939L11.4271 32.8351L12.1238 15.9343L11.1247 15.8931ZM10.4279 32.7939L10.4691 31.7948L0.658029 31.3901L0.61682 32.3893L0.575611 33.3884L10.3867 33.7931L10.4279 32.7939ZM0.61682 32.3893L1.61597 32.4305L2.77607 4.2926L1.77692 4.2514L0.777766 4.21021L-0.382331 32.3481L0.61682 32.3893ZM1.77692 4.2514L1.73573 5.25055L4.36598 5.35897L4.40716 4.35982L4.44834 3.36067L1.8181 3.25225L1.77692 4.2514ZM4.40716 4.35982L5.40631 4.31863L5.2979 1.68839L4.29875 1.72957L3.2996 1.77076L3.40801 4.401L4.40716 4.35982ZM4.29875 1.72957L4.33994 2.72872L32.4778 1.56863L32.4366 0.569476L32.3954 -0.429675L4.25755 0.730422L4.29875 1.72957Z" fill="white" mask="url(#path-1-inside-1_21_37)"/>
</svg>
