<svg width="216" height="196" viewBox="0 0 216 196" fill="none" xmlns="http://www.w3.org/2000/svg">
<mask id="path-1-inside-1_21_37" fill="white">
<path d="M215.391 91.3076L183.554 125.883L124.396 71.4082V195.792H91.3955V71.0391L31.8369 125.883L0 91.3086L99.1592 0L107.695 9.26953L116.232 0L215.391 91.3076Z"/>
</mask>
<path d="M215.391 91.3076L183.554 125.883L124.396 71.4082V195.792H91.3955V71.0391L31.8369 125.883L0 91.3086L99.1592 0L107.695 9.26953L116.232 0L215.391 91.3076Z" fill="#1C1C1C"/>
<path d="M215.391 91.3076L216.126 91.985L216.804 91.2494L216.068 90.572L215.391 91.3076ZM183.554 125.883L182.876 126.618L183.612 127.296L184.289 126.56L183.554 125.883ZM124.396 71.4082L125.073 70.6726L123.396 69.128V71.4082H124.396ZM124.396 195.792V196.792H125.396V195.792H124.396ZM91.3955 195.792H90.3955V196.792H91.3955V195.792ZM91.3955 71.0391H92.3955V68.7588L90.7181 70.3034L91.3955 71.0391ZM31.8369 125.883L31.1013 126.56L31.7787 127.296L32.5143 126.618L31.8369 125.883ZM0 91.3086L-0.677387 90.573L-1.41301 91.2504L-0.735627 91.986L0 91.3086ZM99.1592 0L99.8948 -0.677407L99.2174 -1.41299L98.4818 -0.735627L99.1592 0ZM107.695 9.26953L106.96 9.94694L107.695 10.7457L108.431 9.94698L107.695 9.26953ZM116.232 0L116.91 -0.735628L116.174 -1.41296L115.497 -0.677449L116.232 0ZM215.391 91.3076L214.655 90.6302L182.818 125.205L183.554 125.883L184.289 126.56L216.126 91.985L215.391 91.3076ZM183.554 125.883L184.231 125.147L125.073 70.6726L124.396 71.4082L123.718 72.1438L182.876 126.618L183.554 125.883ZM124.396 71.4082H123.396V195.792H124.396H125.396V71.4082H124.396ZM124.396 195.792V194.792H91.3955V195.792V196.792H124.396V195.792ZM91.3955 195.792H92.3955V71.0391H91.3955H90.3955V195.792H91.3955ZM91.3955 71.0391L90.7181 70.3034L31.1595 125.147L31.8369 125.883L32.5143 126.618L92.0729 71.7747L91.3955 71.0391ZM31.8369 125.883L32.5725 125.205L0.735627 90.6312L0 91.3086L-0.735627 91.986L31.1013 126.56L31.8369 125.883ZM0 91.3086L0.677387 92.0442L99.8366 0.735627L99.1592 0L98.4818 -0.735627L-0.677387 90.573L0 91.3086ZM99.1592 0L98.4236 0.677407L106.96 9.94694L107.695 9.26953L108.431 8.59212L99.8948 -0.677407L99.1592 0ZM107.695 9.26953L108.431 9.94698L116.968 0.677449L116.232 0L115.497 -0.677449L106.96 8.59208L107.695 9.26953ZM116.232 0L115.555 0.735628L214.713 92.0432L215.391 91.3076L216.068 90.572L116.91 -0.735628L116.232 0Z" fill="white" mask="url(#path-1-inside-1_21_37)"/>
</svg>
