<svg width="64" height="59" viewBox="0 0 64 59" fill="none" xmlns="http://www.w3.org/2000/svg">
<mask id="path-1-inside-1_21_37" fill="white">
<path d="M64 27.1309L54.54 37.4043L36.9619 21.2178V58.1768H27.1562V21.1084L9.45996 37.4043L0 27.1309L29.4639 0L32 2.75391L34.5361 0L64 27.1309Z"/>
</mask>
<path d="M64 27.1309L54.54 37.4043L36.9619 21.2178V58.1768H27.1562V21.1084L9.45996 37.4043L0 27.1309L29.4639 0L32 2.75391L34.5361 0L64 27.1309Z" fill="#1C1C1C"/>
<path d="M64 27.1309L64.7356 27.8082L65.413 27.0726L64.6774 26.3952L64 27.1309ZM54.54 37.4043L53.8627 38.1399L54.5983 38.8173L55.2757 38.0817L54.54 37.4043ZM36.9619 21.2178L37.6393 20.4821L35.9619 18.9376V21.2178H36.9619ZM36.9619 58.1768V59.1768H37.9619V58.1768H36.9619ZM27.1562 58.1768H26.1562V59.1768H27.1562V58.1768ZM27.1562 21.1084H28.1562V18.8281L26.4788 20.3728L27.1562 21.1084ZM9.45996 37.4043L8.72433 38.0817L9.40173 38.8173L10.1374 38.1399L9.45996 37.4043ZM0 27.1309L-0.677382 26.3952L-1.41301 27.0726L-0.735631 27.8082L0 27.1309ZM29.4639 0L30.1995 -0.677424L29.5221 -1.41298L28.7865 -0.735631L29.4639 0ZM32 2.75391L31.2644 3.43133L32 4.23009L32.7356 3.43133L32 2.75391ZM34.5361 0L35.2135 -0.735631L34.4779 -1.41298L33.8005 -0.677424L34.5361 0ZM64 27.1309L63.2644 26.4535L53.8044 36.7269L54.54 37.4043L55.2757 38.0817L64.7356 27.8082L64 27.1309ZM54.54 37.4043L55.2174 36.6687L37.6393 20.4821L36.9619 21.2178L36.2845 21.9534L53.8627 38.1399L54.54 37.4043ZM36.9619 21.2178H35.9619V58.1768H36.9619H37.9619V21.2178H36.9619ZM36.9619 58.1768V57.1768H27.1562V58.1768V59.1768H36.9619V58.1768ZM27.1562 58.1768H28.1562V21.1084H27.1562H26.1562V58.1768H27.1562ZM27.1562 21.1084L26.4788 20.3728L8.78256 36.6687L9.45996 37.4043L10.1374 38.1399L27.8337 21.844L27.1562 21.1084ZM9.45996 37.4043L10.1956 36.7269L0.735631 26.4535L0 27.1309L-0.735631 27.8082L8.72433 38.0817L9.45996 37.4043ZM0 27.1309L0.677382 27.8665L30.1412 0.735631L29.4639 0L28.7865 -0.735631L-0.677382 26.3952L0 27.1309ZM29.4639 0L28.7283 0.677424L31.2644 3.43133L32 2.75391L32.7356 2.07648L30.1995 -0.677424L29.4639 0ZM32 2.75391L32.7356 3.43133L35.2717 0.677424L34.5361 0L33.8005 -0.677424L31.2644 2.07648L32 2.75391ZM34.5361 0L33.8588 0.735631L63.3226 27.8665L64 27.1309L64.6774 26.3952L35.2135 -0.735631L34.5361 0Z" fill="white" mask="url(#path-1-inside-1_21_37)"/>
</svg>
